# xmcd
#
# Track frame offsets: 
#        150
#        16907
#        31194
#        45795
#        65332
#        89856
#        115988
#        134101
#        146481
#        157630
#        173674
#        189076
#        205790
#        219288
#
# Disc length: 3186 seconds
#
# Revision: 0
# Processed by: cddbd v1.5.2PL0 Copyright (c) Steve Scherf et al.
# Submitted via: ExactAudioCopy v1.0b3
#
DISCID=b20c700e
DTITLE=Greg Trooper - Greg Trooper Live At The Rock Room
DYEAR=2015
DGENRE=Americana
TTITLE0=This I'd Do
TTITLE1=Don't Let It Go To Waste
TTITLE2=Good Luck Heart
TTITLE3=Broken Man
TTITLE4=They Call Me Hank
TTITLE5=Everything's A Miracle
TTITLE6=Mary Of The Scots In Queens
TTITLE7=The Land Of No Forgiveness
TTITLE8=One Honest Man
TTITLE9=Amelia
TTITLE10=Might Be A Train
TTITLE11=Inisheer 
TTITLE12=All They Way To Amsterdam
TTITLE13=We Still Got Time
EXTD=
EXTT0=
EXTT1=
EXTT2=
EXTT3=
EXTT4=
EXTT5=
EXTT6=
EXTT7=
EXTT8=
EXTT9=
EXTT10=
EXTT11=
EXTT12=
EXTT13=
PLAYORDER=
